PathFileType	4	(X/Y/Z)	 s08c0001.trc
DataRate	CameraRate	NumFrames	NumMarkers	Units	OrigDataRate	OrigDataStartFrame	OrigNumFrames
200	200	4	49	mm	200	1001	2000
Frame#	Time	racr			lacr			c7			jug			rlel			rdr			llel			ldr			s2			lic			ric			lasi			rasi			rpsi			lpsi			rgt			lgt			rth1			rth2			rth3			rth4			rlfc			rmfc			rsh1			rsh2			rsh3			rsh4			rlmal			rmmal			rcal			rtoe			rmt5			rmt1			lth1			lth2			lth4			lth3			llfc			lmfc			llmal			lmmal			lcal			lmt1			lmt5			lsh1			lsh2			lsh3			lsh4			ltoe			
		X1	Y1	Z1	X2	Y2	Z2	X3	Y3	Z3	X4	Y4	Z4	X5	Y5	Z5	X6	Y6	Z6	X7	Y7	Z7	X8	Y8	Z8	X9	Y9	Z9	X10	Y10	Z10	X11	Y11	Z11	X12	Y12	Z12	X13	Y13	Z13	X14	Y14	Z14	X15	Y15	Z15	X16	Y16	Z16	X17	Y17	Z17	X18	Y18	Z18	X19	Y19	Z19	X20	Y20	Z20	X21	Y21	Z21	X22	Y22	Z22	X23	Y23	Z23	X24	Y24	Z24	X25	Y25	Z25	X26	Y26	Z26	X27	Y27	Z27	X28	Y28	Z28	X29	Y29	Z29	X30	Y30	Z30	X31	Y31	Z31	X32	Y32	Z32	X33	Y33	Z33	X34	Y34	Z34	X35	Y35	Z35	X36	Y36	Z36	X37	Y37	Z37	X38	Y38	Z38	X39	Y39	Z39	X40	Y40	Z40	X41	Y41	Z41	X42	Y42	Z42	X43	Y43	Z43	X44	Y44	Z44	X45	Y45	Z45	X46	Y46	Z46	X47	Y47	Z47	X48	Y48	Z48	X49	Y49	Z49	
1001	5.0050	422.762171	1529.487649	596.941677	410.663926	1545.250756	200.092564	363.752564	1584.054890	397.307588	494.185357	1487.728873	395.681363	381.317156	1236.183854	682.600661	455.509003	959.018115	793.303897	388.210936	1245.339583	98.812619	444.610991	974.057045	-5.914755	328.070052	1028.717455	404.961798	474.947401	1094.376929	239.297769	481.282855	1099.999653	556.146198	524.063526	1036.632873	269.938843	537.149872	1033.571885	521.487115	350.250883	1068.206217	452.707921	348.715736	1076.089455	353.291307	424.210922	955.469997	577.854842	428.188914	943.863921	212.441695	436.907433	804.098100	593.551751	458.415252	718.313566	589.064003	495.437092	718.908683	580.855549	435.040968	635.063632	579.013458	438.560146	511.877512	559.619926	422.737262	500.057610	456.206570	398.724612	387.287684	594.134439	421.812814	301.158381	576.335511	398.399415	218.278509	569.594777	448.336857	305.924914	546.176402	392.503644	97.717787	555.741997	407.369055	122.437915	470.075251	321.407920	65.420733	507.960842	612.128403	79.311113	510.264392	535.348950	47.907686	577.129991	538.675749	47.750106	464.046891	445.034342	815.178332	190.070196	464.417285	729.898455	193.758137	500.511323	730.675833	202.191913	437.509485	645.559348	196.883756	431.715893	518.939440	217.298071	436.992123	496.370467	315.792160	381.931331	107.107012	221.748884	412.085135	126.383771	302.040195	325.143718	74.293137	264.485582	541.975387	47.183936	295.892921	528.709568	43.048747	181.184023	409.792920	394.265383	190.871941	423.205835	310.740675	208.022594	394.338256	227.221619	207.751223	444.548826	313.146160	240.353269	610.543105	81.624391	243.155328	
1002	5.0100	422.797398	1529.485309	596.959059	410.655348	1545.260057	200.095636	363.786151	1584.062614	397.302883	494.185267	1487.706592	395.698604	381.315026	1236.193537	682.616632	455.513170	959.050734	793.334373	388.211159	1245.349343	98.825545	444.609815	974.071087	-5.919602	328.077248	1028.720426	404.980324	474.929652	1094.379747	239.316159	481.295008	1099.994534	556.154050	524.063545	1036.642750	269.954375	537.139361	1033.551224	521.492011	350.264666	1068.209185	452.718697	348.693903	1076.090473	353.308539	424.220774	955.477679	577.870647	428.194428	943.854873	212.450142	436.918304	804.096692	593.557373	458.429595	718.300200	589.068534	495.449052	718.887681	580.852893	435.055771	635.083194	579.021704	438.566993	511.880670	559.642561	422.732230	500.052873	456.206686	398.737126	387.283476	594.142665	421.802586	301.143802	576.321835	398.409227	218.278486	569.595292	448.389484	305.936748	546.195677	392.508471	97.723009	555.740995	407.390107	122.423998	470.065461	321.421655	65.420156	507.951157	612.139105	79.359577	510.272144	535.393500	47.881097	577.125044	538.642714	47.777308	464.037999	445.026465	815.178041	190.068246	464.405185	729.872464	193.801338	500.515223	730.672746	202.207211	437.486372	645.546191	196.868529	431.702771	518.945664	217.314168	436.994856	496.362716	315.791461	381.930585	107.108339	221.747847	412.061463	126.401621	302.031487	325.151897	74.282180	264.487942	541.979267	47.210323	295.884586	528.710999	43.065831	181.191467	409.774211	394.272472	190.864828	423.203974	310.756313	208.038938	394.311071	227.209884	207.761289	444.524105	313.136235	240.347910	610.540200	81.616572	243.177774	
1003	5.0150	422.793466	1529.483088	596.962598	410.651554	1545.267300	200.111609	363.752679	1584.052572	397.333760	494.179050	1487.721873	395.709804	381.312358	1236.195255	682.642949	455.515530	959.060172	793.363242	388.211206	1245.366070	98.823336	444.620158	974.080672	-5.911251	328.070173	1028.721501	404.979391	474.918869	1094.368849	239.321481	481.290915	1099.988395	556.160849	524.053716	1036.644761	269.962081	537.148542	1033.558667	521.487295	350.252258	1068.197190	452.733975	348.693032	1076.083056	353.312946	424.221154	955.477544	577.874947	428.190362	943.866785	212.463910	436.907048	804.095409	593.559442	458.422310	718.318370	589.075806	495.457351	718.905001	580.870022	434.950437	635.008248	578.940938	438.552200	511.877827	559.628140	422.756630	500.053960	456.221624	398.727327	387.277229	594.122197	421.821534	301.169229	576.332356	398.408058	218.267595	569.593897	448.386863	305.950740	546.205958	392.497959	97.731748	555.740240	407.370355	122.423455	470.045007	321.405381	65.432095	507.939516	612.143507	79.339639	510.266928	535.430474	47.860555	577.131945	538.675749	47.750106	464.046890	445.006989	815.187588	190.082973	464.388310	729.900351	193.787731	500.515078	730.700424	202.207315	437.482133	645.570587	196.869974	431.701879	518.930887	217.292648	437.010195	496.368822	315.805185	381.929486	107.108952	221.749185	412.072448	126.373273	302.018866	325.151156	74.283238	264.487660	541.955671	47.178478	295.879045	528.728891	43.046169	181.172289	409.772758	394.284199	190.871532	423.174453	310.748355	208.003832	394.313484	227.217016	207.750442	444.524150	313.135353	240.348088	610.534273	81.622173	243.163475	
1004	5.0200	422.785916	1529.492707	596.984585	410.650202	1545.285678	200.130694	363.775382	1584.076038	397.337088	494.191930	1487.713416	395.718405	381.299523	1236.205000	682.653836	455.514810	959.071955	793.394337	388.219900	1245.361313	98.829366	444.617661	974.093022	-5.921188	328.055208	1028.720084	405.003237	474.918479	1094.359587	239.327296	481.299219	1099.994097	556.166147	524.054057	1036.645631	269.965172	537.148078	1033.557721	521.486602	350.249842	1068.204060	452.738094	348.696486	1076.073955	353.336091	424.216925	955.470109	577.877031	428.176783	943.871482	212.469219	436.916720	804.090534	593.567559	458.419075	718.310004	589.076874	495.436739	718.903657	580.866318	435.040445	635.062022	579.038346	438.542964	511.885175	559.643404	422.726021	500.041039	456.229972	398.728069	387.282134	594.140386	421.787606	301.154815	576.328571	398.399565	218.280891	569.599795	448.346403	305.934937	546.197795	392.510175	97.739566	555.739490	407.408148	122.436691	470.062353	321.400375	65.422449	507.941329	612.137782	79.315691	510.242509	535.410245	47.868093	577.136789	538.678724	47.765041	464.035814	445.009298	815.176062	190.077405	464.376444	729.893547	193.775130	500.478110	730.700280	202.211500	437.472728	645.562450	196.887683	431.699406	518.921256	217.314795	436.983726	496.364242	315.797020	381.900920	107.117130	221.739190	412.079499	126.389493	302.014241	325.151152	74.283242	264.487659	541.973005	47.185231	295.868795	528.697306	43.067671	181.174697	409.762619	394.283946	190.866624	423.202791	310.739607	208.034643	394.306630	227.204175	207.763728	444.519726	313.151077	240.370178	610.530697	81.616776	243.163317	
